<?xml version="1.0" encoding="UTF-8"?><svg id="b" xmlns="http://www.w3.org/2000/svg" width="411.76" height="320.66" xmlns:xlink="http://www.w3.org/1999/xlink" viewBox="0 0 411.76 320.66"><defs><linearGradient id="d" x1="209.99" y1="117.52" x2="209.99" y2="0" gradientUnits="userSpaceOnUse"><stop offset="0" stop-color="#725130"/><stop offset=".52" stop-color="#d1ac8e"/><stop offset="1" stop-color="#725130"/></linearGradient><linearGradient id="e" y1="320.66" y2="203.15" xlink:href="#d"/><linearGradient id="f" x1="209.08" y1="192" x2="204.64" y2="128.38" xlink:href="#d"/></defs><g id="c"><path d="M214.61,38.46l62.37,79.06h-2.76l-59.58-76.82-.03-2.23Zm-.09-6.87l71.59,85.93h4.03L214.48,28.78l.04,2.81Zm-.16-11.56l89.69,97.49h6.44L214.31,16.4l.05,3.63Zm-.27-20.03l.07,4.87,120.12,112.64h11.9L214.09,0Zm-68.37,117.52l59.54-76.72,.03-2.23-62.33,78.96h2.76Zm-11.88,0L205.39,31.69l.04-2.8-75.62,88.62h4.03Zm-17.94,0L205.55,20.15l.05-3.62L109.46,117.52h6.44Zm-30.21,0L205.75,5.02l.07-4.86L73.8,117.52h11.89Z" fill="url(#d)" fill-rule="evenodd"/><path d="M276.98,203.15l-62.37,79.06,.03-2.24,59.58-76.82h2.76Zm9.13,0l-71.59,85.93-.04,2.81,75.66-88.74h-4.03Zm17.95,0l-89.69,97.49-.05,3.63,96.18-101.12h-6.44Zm30.22,0l-120.12,112.64-.07,4.88,132.09-117.52h-11.9Zm-129.01,76.72l-59.54-76.72h-2.76l62.33,78.96-.03-2.23Zm.12,9.1l-71.55-85.82h-4.03l75.62,88.62-.04-2.8Zm.16,11.54l-89.64-97.37h-6.44l96.13,100.99-.05-3.62Zm-119.85-97.37h-11.89l132.02,117.36-.07-4.86-120.06-112.5Z" fill="url(#e)" fill-rule="evenodd"/><path d="M28.97,142.63l.93,7.04h-.31c-.28-.57-.53-1.12-.75-1.66-.31-.81-.67-1.54-1.07-2.18-.41-.64-.97-1.15-1.71-1.54-.73-.39-1.79-.58-3.17-.58h-1.99c-1.1,0-1.95,.19-2.54,.57-.59,.38-1,.98-1.21,1.79-.22,.81-.32,1.87-.32,3.18v26.51c0,.88-.31,1.63-.94,2.25-.63,.62-1.38,.93-2.26,.93h-4.32v-.26c1.1-.26,1.93-.64,2.47-1.13,.54-.49,.9-1.16,1.06-2.01,.16-.84,.25-1.93,.25-3.26v-23.04c0-1.97-.25-3.38-.74-4.25-.49-.86-1.5-1.29-3.04-1.29h-2.3c-1.38,0-2.43,.19-3.17,.58-.73,.39-1.3,.9-1.7,1.54-.41,.64-.76,1.36-1.07,2.18-.22,.53-.47,1.09-.75,1.66h-.31l.93-7.04H28.97Zm39.55,36.07v.26h-3.8c-1,0-1.9-.28-2.71-.84-.81-.56-1.4-1.32-1.76-2.26l-3.49-9.14-15.89,.1-3.9,10.51c-.52,1.09-1.3,1.63-2.35,1.63h-2.61v-.26c1.41-.33,2.49-.92,3.23-1.77,.74-.85,1.42-2.19,2.04-4l9.85-26.36c.17-.57,.26-1.04,.26-1.4,0-.66-.22-1.16-.66-1.5-.44-.34-1.15-.6-2.13-.78v-.26h3.33c1.12,0,2.14,.31,3.05,.95,.91,.63,1.58,1.47,1.99,2.52l9.98,26.2c.65,1.86,1.38,3.3,2.17,4.31,.79,1.01,1.93,1.7,3.41,2.08Zm-12.17-13.08l-7.6-19.94-7.49,20.04,15.09-.1Zm39.14-22.73c1.36,.28,2.04,.83,2.04,1.66,0,.46-.17,1.02-.52,1.66-.34,.64-.82,1.36-1.42,2.17l-7.29,10.17-8.94-14.01c-.93-1.28-2.11-1.92-3.54-1.92h-5.19v.26c1.84,.38,3.31,1.17,4.41,2.36,1.09,1.19,2.23,2.77,3.4,4.74,.04,.07,.08,.14,.13,.21l6.87,10.9v11.21c0,1.33-.08,2.42-.23,3.26-.16,.85-.51,1.52-1.06,2.01-.55,.49-1.38,.87-2.48,1.13v.26h5.12c.65,0,1.22-.23,1.69-.7,.47-.47,.71-1.04,.71-1.71v-17.17l7.44-10.38c.1-.12,.2-.24,.29-.36,1.02-1.55,2.05-2.82,3.1-3.81,1.05-.98,2.48-1.63,4.29-1.94v-.26h-8.81v.26Zm46.25,31.88c-.77,.91-1.73,1.65-2.88,2.23-1.15,.58-2.58,.87-4.29,.87h-6.05c-1.1,0-1.95-.19-2.54-.57-.59-.38-1-.98-1.22-1.79-.21-.81-.32-1.88-.32-3.21v-27.26c0-.66-.24-1.22-.71-1.7-.47-.47-1.05-.71-1.72-.71h-5.09v.26c1.1,.24,1.93,.61,2.47,1.11,.54,.5,.89,1.17,1.06,2.02,.16,.85,.25,1.92,.25,3.24v23.04c0,1.33-.08,2.42-.25,3.26-.16,.85-.52,1.52-1.06,2.01-.54,.49-1.37,.87-2.47,1.13v.26h24.75l2.27-7.12h-.31c-.5,1.05-1.13,2.03-1.9,2.94Zm51.41-21.94c1.13,2.33,1.69,5,1.69,8s-.57,5.69-1.71,8c-1.14,2.31-2.66,4.26-4.57,5.84-1.91,1.58-4.07,2.78-6.47,3.59-2.4,.81-4.87,1.22-7.4,1.22s-4.97-.4-7.35-1.2c-2.39-.8-4.53-1.99-6.44-3.57-1.9-1.58-3.42-3.53-4.56-5.85-1.14-2.32-1.71-4.99-1.71-8.01s.57-5.67,1.71-8c1.14-2.33,2.66-4.29,4.56-5.88,1.9-1.59,4.05-2.79,6.45-3.61,2.39-.82,4.86-1.23,7.39-1.23s5,.41,7.4,1.23c2.4,.82,4.56,2.02,6.46,3.61,1.9,1.59,3.42,3.55,4.55,5.88Zm-2.06,9.81c0-.67-.03-1.35-.1-2.02-.34-3.88-1.39-7.1-3.12-9.66-1.74-2.55-3.9-4.46-6.49-5.72-2.58-1.26-5.23-1.89-7.93-1.89-1.96,0-3.85,.32-5.65,.97-1.8,.65-3.41,1.62-4.83,2.91-1.42,1.3-2.55,2.92-3.37,4.87-.83,1.95-1.24,4.22-1.24,6.81,0,.67,.04,1.35,.1,2.02,.34,3.9,1.39,7.13,3.14,9.68,1.75,2.56,3.91,4.46,6.5,5.72,2.58,1.26,5.23,1.89,7.93,1.89,1.96,0,3.85-.32,5.65-.97,1.8-.65,3.41-1.62,4.82-2.93,1.41-1.3,2.53-2.93,3.36-4.87,.83-1.94,1.24-4.22,1.24-6.82Zm47.69,14.51c1.05,.7,2.13,1.11,3.23,1.23v.52c-.93,0-1.74,0-2.43,.02-.53,.02-1.02,.03-1.45,.03-1.48,0-2.6-.23-3.36-.7-.76-.47-1.77-1.51-3.02-3.13l-10.98-13.72h-5.84v14.78c0,.74-.27,1.38-.8,1.91-.53,.54-1.17,.8-1.91,.8h-4.8v-.26c1.1-.26,1.92-.63,2.47-1.13,.54-.49,.89-1.16,1.06-2.01,.16-.85,.25-1.93,.25-3.26v-23.04c0-1.31-.08-2.39-.25-3.24-.17-.85-.52-1.52-1.06-2.02-.54-.5-1.37-.87-2.47-1.11v-.26h14.91c3.03,0,5.54,.38,7.53,1.15,1.99,.77,3.48,1.86,4.47,3.27,.99,1.41,1.49,3.08,1.49,5,0,2.52-.87,4.59-2.62,6.23-1.75,1.63-4.38,2.64-7.89,3.02l9.48,11.83c1.62,2.02,2.95,3.38,4,4.08Zm-16.46-16.84c2.31,0,4.15-.33,5.53-.98,1.38-.66,2.37-1.61,2.98-2.87,.61-1.26,.92-2.81,.92-4.66s-.32-3.27-.94-4.48c-.63-1.21-1.63-2.12-3.01-2.73-1.38-.61-3.21-.92-5.48-.92h-3.31c-1.1,0-1.95,.19-2.55,.57-.59,.38-1,.98-1.21,1.79-.21,.81-.32,1.87-.32,3.18v11.11h7.39Zm83.53,14.46c-.77,.91-1.73,1.65-2.88,2.23-1.16,.58-2.58,.87-4.29,.87h-6.05c-1.1,0-1.95-.19-2.54-.57-.59-.38-1-.98-1.21-1.79-.22-.81-.32-1.88-.32-3.21v-27.26c0-.66-.24-1.22-.71-1.7-.47-.47-1.05-.71-1.72-.71h-5.09v.26c1.1,.24,1.92,.61,2.47,1.11s.9,1.17,1.06,2.02c.16,.85,.24,1.92,.24,3.24v23.04c0,1.33-.08,2.42-.24,3.26-.17,.85-.52,1.52-1.06,2.01s-1.37,.87-2.47,1.13v.26h24.75l2.27-7.12h-.31c-.5,1.05-1.13,2.03-1.9,2.94Zm49.66,3.92v.26h-3.79c-1,0-1.91-.28-2.72-.84-.81-.56-1.4-1.32-1.76-2.26l-3.49-9.14-15.89,.1-3.9,10.51c-.52,1.09-1.3,1.63-2.35,1.63h-2.61v-.26c1.41-.33,2.49-.92,3.23-1.77s1.42-2.19,2.04-4l9.85-26.36c.17-.57,.26-1.04,.26-1.4,0-.66-.22-1.16-.66-1.5-.44-.34-1.15-.6-2.13-.78v-.26h3.33c1.12,0,2.14,.31,3.05,.95,.91,.63,1.58,1.47,1.99,2.52l9.97,26.2c.65,1.86,1.38,3.3,2.17,4.31,.79,1.01,1.93,1.7,3.41,2.08Zm-12.17-13.08l-7.6-19.94-7.49,20.04,15.09-.1Zm59.6-22.99v.26c.98,.17,1.71,.45,2.18,.83,.47,.38,.71,.95,.71,1.71,0,.83-.24,1.9-.72,3.21l-9.62,27.06-9.48-30.55c-.25-.76-.67-1.37-1.29-1.83-.62-.46-1.32-.69-2.12-.69h-4.78v.26c1.5,.36,2.66,1.05,3.5,2.07,.84,1.02,1.53,2.45,2.08,4.3l1.32,4.22-7.93,22.37-11.19-31.12c-.24-.64-.63-1.15-1.17-1.53-.54-.38-1.14-.57-1.8-.57h-5.01v.26c1.48,.36,2.63,1.06,3.44,2.08,.81,1.03,1.54,2.46,2.17,4.28l10.18,28.12c.5,1.05,1.25,1.58,2.25,1.58h1.4l8.34-23.4,6.62,21.39c.19,.6,.54,1.09,1.05,1.46,.5,.37,1.07,.56,1.69,.56h.96l10.78-30.32c.6-1.8,1.28-3.12,2.03-3.98,.75-.85,1.83-1.44,3.24-1.77v-.26h-8.81Z" fill="url(#f)"/></g></svg>